<?xml version="1.0" encoding="iso-8859-1"?>
<!-- Generator: Adobe Illustrator 18.0.0, SVG Export Plug-In . SVG Version: 6.00 Build 0)  -->
<!DOCTYPE svg PUBLIC "-//W3C//DTD SVG 1.1//EN" "http://www.w3.org/Graphics/SVG/1.1/DTD/svg11.dtd">
<svg version="1.1" id="Capa_1" xmlns="http://www.w3.org/2000/svg" xmlns:xlink="http://www.w3.org/1999/xlink" x="0px" y="0px"
	 viewBox="0 0 132 132" style="enable-background:new 0 0 132 132;" xml:space="preserve">
<g>
	<path style="fill:#90DCEB;" d="M36,43.5h27v16h2h1h39v-21H27v21h9V43.5z M73,43.5h27v10H73V43.5z"/>
	<path style="fill:#ADF9C6;" d="M109,13c0-3.033-2.468-5.5-5.5-5.5h-34C66.468,7.5,64,9.967,64,13s2.468,5.5,5.5,5.5h34
		C106.532,18.5,109,16.033,109,13z"/>
	<rect x="83" y="24.5" style="fill:#ADF9C6;" width="6" height="8"/>
	<path style="fill:#90DCEB;" d="M106.285,66.5H63v13H36v-13H24.714l-10.4,28h102.371L106.285,66.5z M43,89.5h-7v-7h7V89.5z M53,89.5
		h-7v-7h7V89.5z M63,89.5h-7v-7h7V89.5z M80,89.5h-7v-7h7V89.5z M80,79.5h-7v-7h7V79.5z M90,89.5h-7v-7h7V89.5z M90,79.5h-7v-7h7
		V79.5z M100,89.5h-7v-7h7V89.5z M100,79.5h-7v-7h7V79.5z"/>
	<path style="fill:#ADF9C6;" d="M120,100.5H12c-3.309,0-6,2.691-6,6v12c0,3.309,2.691,6,6,6h108c3.309,0,6-2.691,6-6v-12
		C126,103.191,123.309,100.5,120,100.5z M65.998,119.909c-4.084,0-7.406-3.324-7.406-7.41c0-4.085,3.322-7.408,7.406-7.408
		c4.086,0,7.41,3.323,7.41,7.408C73.408,116.585,70.084,119.909,65.998,119.909z"/>
	<path style="fill:#586065;" d="M123.258,94.961l-12.258-33V32.5H95v-8h8.5c6.341,0,11.5-5.159,11.5-11.5s-5.159-11.5-11.5-11.5h-34
		C63.159,1.5,58,6.659,58,13s5.159,11.5,11.5,11.5H77v8H21v27h-0.086L7.599,95.347C3.156,97.107,0,101.438,0,106.5v12
		c0,6.617,5.383,12,12,12h108c6.617,0,12-5.383,12-12v-12C132,101.013,128.295,96.386,123.258,94.961z M69.5,18.5
		c-3.032,0-5.5-2.467-5.5-5.5s2.468-5.5,5.5-5.5h34c3.032,0,5.5,2.467,5.5,5.5s-2.468,5.5-5.5,5.5H69.5z M89,24.5v8h-6v-8H89z
		 M27,38.5h78v21H66h-1h-2v-16H36v16h-9V38.5z M57,49.5v24H42v-24H57z M24.714,66.5H36v13h27v-13h43.285l10.4,28H14.315L24.714,66.5
		z M126,118.5c0,3.309-2.691,6-6,6H12c-3.309,0-6-2.691-6-6v-12c0-3.309,2.691-6,6-6h108c3.309,0,6,2.691,6,6V118.5z"/>
	<rect x="73" y="43.5" style="fill:#586065;" width="27" height="10"/>
	<path style="fill:#586065;" d="M65.998,105.091c-4.084,0-7.406,3.323-7.406,7.408c0,4.086,3.322,7.41,7.406,7.41
		c4.086,0,7.41-3.324,7.41-7.41C73.408,108.414,70.084,105.091,65.998,105.091z"/>
	<rect x="42" y="49.5" style="fill:#FFFFFF;" width="15" height="24"/>
	<rect x="73" y="72.5" style="fill:#586065;" width="7" height="7"/>
	<rect x="83" y="72.5" style="fill:#586065;" width="7" height="7"/>
	<rect x="93" y="72.5" style="fill:#586065;" width="7" height="7"/>
	<rect x="73" y="82.5" style="fill:#586065;" width="7" height="7"/>
	<rect x="83" y="82.5" style="fill:#586065;" width="7" height="7"/>
	<rect x="93" y="82.5" style="fill:#586065;" width="7" height="7"/>
	<rect x="36" y="82.5" style="fill:#586065;" width="7" height="7"/>
	<rect x="46" y="82.5" style="fill:#586065;" width="7" height="7"/>
	<rect x="56" y="82.5" style="fill:#586065;" width="7" height="7"/>
</g>
<g>
</g>
<g>
</g>
<g>
</g>
<g>
</g>
<g>
</g>
<g>
</g>
<g>
</g>
<g>
</g>
<g>
</g>
<g>
</g>
<g>
</g>
<g>
</g>
<g>
</g>
<g>
</g>
<g>
</g>
</svg>
